<svg xmlns="http://www.w3.org/2000/svg" version="1.1" xmlns:xlink="http://www.w3.org/1999/xlink" xmlns:svgjs="http://svgjs.dev/svgjs" width="2000" height="1247" viewBox="0 0 2000 1247"><g transform="matrix(1,0,0,1,-1.2121212121212466,0.5645315408906981)"><svg viewBox="0 0 396 247" data-background-color="#ffffff" preserveAspectRatio="xMidYMid meet" height="1247" width="2000" xmlns="http://www.w3.org/2000/svg" xmlns:xlink="http://www.w3.org/1999/xlink"><g id="tight-bounds" transform="matrix(1,0,0,1,0.2400000000000091,-0.09992019999998547)"><svg viewBox="0 0 395.52 247.2" height="247.2" width="395.52"><g><svg></svg></g><g><svg viewBox="0 0 395.52 247.2" height="247.2" width="395.52"><mask id="5c9e0ea2-f8bf-42c2-a633-2ecb074c3175"><rect width="395.52" height="247.2" fill="white"></rect><g transform="matrix(1,0,0,1,47.46437407660795,37.08)" id="clone"><svg viewBox="0 0 300.5912518467841 173.04" height="173.04" width="300.5912518467841"><g><svg viewBox="0 0 300.5912518467841 173.04" height="173.04" width="300.5912518467841"><g><svg viewBox="0 0 153.86860222781172 173.04" height="173.04" width="153.86860222781172"><g id="SvgjsG1095"><svg viewBox="0 0 153.86860222781172 173.04" height="173.04" width="153.86860222781172" id="SvgjsSvg1094"><g><svg viewBox="0 0 153.86860222781172 173.04" height="173.04" width="153.86860222781172"><g transform="matrix(1,0,0,1,0,0)"><svg width="153.86860222781172" viewBox="0.8799999999999999 -38.77 37.25 41.77" height="173.04" data-palette-color="#8789fe"><path d="M12.74-35.77L8.67 0 3.88 0 7.96-35.77 12.74-35.77ZM32.52 0L26.42 0 12.99-18.07 29.76-35.77 35.13-35.77 17.8-18.68 32.52 0Z" opacity="1" transform="matrix(1,0,0,1,0,0)" fill="black" class="wordmark-text-0" id="SvgjsPath1093" stroke-width="5" stroke="black" stroke-linejoin="round"></path></svg></g></svg></g></svg></g></svg></g><g transform="matrix(1,0,0,1,176.02230885519225,30.648443717024286)"><svg viewBox="0 0 124.56894299159183 111.74311256595142" height="111.74311256595142" width="124.56894299159183"><g><svg xmlns="http://www.w3.org/2000/svg" xmlns:xlink="http://www.w3.org/1999/xlink" version="1.1" x="0" y="0" viewBox="2 5.077702138729457 60 53.82229786127054" style="enable-background:new 0 0 64 64;" xml:space="preserve" height="111.74311256595142" width="124.56894299159183" class="icon-icon-0" data-fill-palette-color="accent" id="SvgjsSvg1092"><g fill="black" stroke-width="5" stroke="black" stroke-linejoin="round"><path d="M62 32c0-4.8-4.9-8.3-11.9-10.5 1.6-7.1 1-13.1-3.1-15.5-4.1-2.4-9.7 0.1-15 5-5.3-4.9-10.9-7.4-15-5-4.1 2.4-4.7 8.4-3.1 15.5C6.9 23.7 2 27.2 2 32s4.9 8.3 11.9 10.5c-1.6 7.1-1 13.1 3.1 15.5 1.1 0.6 2.3 0.9 3.5 0.9 3.5 0 7.6-2.3 11.5-6 3.9 3.6 8 6 11.5 6 1.2 0 2.4-0.3 3.5-0.9 4.1-2.4 4.7-8.4 3.1-15.5C57.1 40.3 62 36.8 62 32zM45 9.5c2 1.2 2.5 5.3 1.3 11-2.2-0.5-4.6-0.9-7-1.1-1.4-2-2.9-3.8-4.5-5.5C39.1 10 43 8.3 45 9.5zM44.2 36.8c0.4 1 0.7 1.9 1 2.9-1 0.2-2 0.4-3 0.6 0.3-0.6 0.7-1.1 1-1.7C43.6 37.9 43.9 37.3 44.2 36.8zM39.8 36.5c-0.9 1.5-1.8 3-2.7 4.3C35.4 40.9 33.8 41 32 41c-1.8 0-3.4-0.1-5.1-0.2-0.9-1.4-1.8-2.8-2.7-4.3-0.9-1.5-1.7-3-2.4-4.5 0.7-1.5 1.5-3 2.4-4.5 0.9-1.5 1.8-3 2.7-4.3 1.6-0.1 3.3-0.2 5.1-0.2 1.8 0 3.4 0.1 5.1 0.2 0.9 1.4 1.8 2.8 2.7 4.3 0.9 1.5 1.7 3 2.4 4.5C41.5 33.5 40.7 35 39.8 36.5zM32 47.3c-0.7-0.7-1.3-1.5-2-2.3 0.7 0 1.3 0 2 0 0.7 0 1.3 0 2 0C33.3 45.8 32.7 46.5 32 47.3zM20.7 38.5c0.3 0.6 0.7 1.1 1 1.7-1-0.2-2-0.4-3-0.6 0.3-0.9 0.6-1.9 1-2.9C20.1 37.3 20.4 37.9 20.7 38.5zM19.8 27.2c-0.4-1-0.7-1.9-1-2.9 1-0.2 2-0.4 3-0.6-0.3 0.6-0.7 1.1-1 1.7C20.4 26.1 20.1 26.7 19.8 27.2zM32 16.7c0.7 0.7 1.3 1.5 2 2.3-0.7 0-1.3 0-2 0-0.7 0-1.3 0-2 0C30.7 18.2 31.3 17.5 32 16.7zM43.3 25.5c-0.3-0.6-0.7-1.1-1-1.7 1 0.2 2 0.4 3 0.6-0.3 0.9-0.6 1.9-1 2.9C43.9 26.7 43.6 26.1 43.3 25.5zM19 9.5c0.4-0.2 0.9-0.4 1.5-0.4 2.2 0 5.3 1.7 8.7 4.8-1.5 1.7-3 3.5-4.5 5.5-2.4 0.3-4.8 0.6-7 1.1C16.5 14.8 17 10.7 19 9.5zM6 32c0-2.3 3.4-4.8 8.9-6.6 0.7 2.2 1.5 4.4 2.5 6.6-1 2.2-1.8 4.4-2.5 6.6C9.4 36.8 6 34.3 6 32zM19 54.5c-2-1.2-2.5-5.3-1.3-11 2.2 0.5 4.6 0.9 7 1.1 1.4 2 2.9 3.8 4.5 5.5C24.9 54 21 55.7 19 54.5zM45 54.5c-2 1.2-5.9-0.5-10.2-4.4 1.5-1.7 3-3.5 4.5-5.5 2.4-0.3 4.8-0.6 7-1.1C47.5 49.2 47 53.3 45 54.5zM49.1 38.6c-0.7-2.2-1.5-4.4-2.5-6.6 1-2.2 1.8-4.4 2.5-6.6 5.5 1.8 8.9 4.3 8.9 6.6S54.6 36.8 49.1 38.6z" fill="black" stroke-width="5" stroke="black" stroke-linejoin="round"></path><circle cx="32" cy="32" r="6.0" fill="black" stroke-width="5" stroke="black" stroke-linejoin="round"></circle></g></svg></g></svg></g></svg></g></svg></g></mask><g mask="url(#5c9e0ea2-f8bf-42c2-a633-2ecb074c3175)"><g><path transform="translate(62.95167,247.21174) scale(6.91148,6.91148)" d="M12.74-35.77l-4.07 35.77h-4.79l4.08-35.77zM32.52 0h-6.1l-13.43-18.07 16.77-17.7h5.37l-17.33 17.09z" fill="#8789fe" fill-rule="nonzero" stroke="none" stroke-width="1" stroke-linecap="butt" stroke-linejoin="miter" stroke-miterlimit="10" stroke-dasharray="" stroke-dashoffset="0" font-family="none" font-weight="none" font-size="none" text-anchor="none" style="mix-blend-mode: normal" data-fill-palette-color="tertiary"></path></g></g><g transform="matrix(1,0,0,1,47.46437407660795,37.08)"><svg viewBox="0 0 300.5912518467841 173.04" height="173.04" width="300.5912518467841"><g><svg viewBox="0 0 300.5912518467841 173.04" height="173.04" width="300.5912518467841"><g><svg viewBox="0 0 153.86860222781172 173.04" height="173.04" width="153.86860222781172"><g id="textblocktransform"><svg viewBox="0 0 153.86860222781172 173.04" height="173.04" width="153.86860222781172" id="textblock"><g><svg viewBox="0 0 153.86860222781172 173.04" height="173.04" width="153.86860222781172"><g transform="matrix(1,0,0,1,0,0)"><svg width="153.86860222781172" viewBox="0.8799999999999999 -38.77 37.25 41.77" height="173.04" data-palette-color="#8789fe"><path d="M12.74-35.77L8.67 0 3.88 0 7.96-35.77 12.74-35.77ZM32.52 0L26.42 0 12.99-18.07 29.76-35.77 35.13-35.77 17.8-18.68 32.52 0Z" opacity="1" transform="matrix(1,0,0,1,0,0)" fill="#8789fe" class="wordmark-text-0" data-fill-palette-color="primary" id="text-0"></path></svg></g></svg></g></svg></g></svg></g><g transform="matrix(1,0,0,1,176.02230885519225,30.648443717024286)"><svg viewBox="0 0 124.56894299159183 111.74311256595142" height="111.74311256595142" width="124.56894299159183"><g><svg xmlns="http://www.w3.org/2000/svg" xmlns:xlink="http://www.w3.org/1999/xlink" version="1.1" x="0" y="0" viewBox="2 5.077702138729457 60 53.82229786127054" style="enable-background:new 0 0 64 64;" xml:space="preserve" height="111.74311256595142" width="124.56894299159183" class="icon-icon-0" data-fill-palette-color="accent" id="icon-0"><g fill="#8789fe" data-fill-palette-color="accent"><path d="M62 32c0-4.8-4.9-8.3-11.9-10.5 1.6-7.1 1-13.1-3.1-15.5-4.1-2.4-9.7 0.1-15 5-5.3-4.9-10.9-7.4-15-5-4.1 2.4-4.7 8.4-3.1 15.5C6.9 23.7 2 27.2 2 32s4.9 8.3 11.9 10.5c-1.6 7.1-1 13.1 3.1 15.5 1.1 0.6 2.3 0.9 3.5 0.9 3.5 0 7.6-2.3 11.5-6 3.9 3.6 8 6 11.5 6 1.2 0 2.4-0.3 3.5-0.9 4.1-2.4 4.7-8.4 3.1-15.5C57.1 40.3 62 36.8 62 32zM45 9.5c2 1.2 2.5 5.3 1.3 11-2.2-0.5-4.6-0.9-7-1.1-1.4-2-2.9-3.8-4.5-5.5C39.1 10 43 8.3 45 9.5zM44.2 36.8c0.4 1 0.7 1.9 1 2.9-1 0.2-2 0.4-3 0.6 0.3-0.6 0.7-1.1 1-1.7C43.6 37.9 43.9 37.3 44.2 36.8zM39.8 36.5c-0.9 1.5-1.8 3-2.7 4.3C35.4 40.9 33.8 41 32 41c-1.8 0-3.4-0.1-5.1-0.2-0.9-1.4-1.8-2.8-2.7-4.3-0.9-1.5-1.7-3-2.4-4.5 0.7-1.5 1.5-3 2.4-4.5 0.9-1.5 1.8-3 2.7-4.3 1.6-0.1 3.3-0.2 5.1-0.2 1.8 0 3.4 0.1 5.1 0.2 0.9 1.4 1.8 2.8 2.7 4.3 0.9 1.5 1.7 3 2.4 4.5C41.5 33.5 40.7 35 39.8 36.5zM32 47.3c-0.7-0.7-1.3-1.5-2-2.3 0.7 0 1.3 0 2 0 0.7 0 1.3 0 2 0C33.3 45.8 32.7 46.5 32 47.3zM20.7 38.5c0.3 0.6 0.7 1.1 1 1.7-1-0.2-2-0.4-3-0.6 0.3-0.9 0.6-1.9 1-2.9C20.1 37.3 20.4 37.9 20.7 38.5zM19.8 27.2c-0.4-1-0.7-1.9-1-2.9 1-0.2 2-0.4 3-0.6-0.3 0.6-0.7 1.1-1 1.7C20.4 26.1 20.1 26.7 19.8 27.2zM32 16.7c0.7 0.7 1.3 1.5 2 2.3-0.7 0-1.3 0-2 0-0.7 0-1.3 0-2 0C30.7 18.2 31.3 17.5 32 16.7zM43.3 25.5c-0.3-0.6-0.7-1.1-1-1.7 1 0.2 2 0.4 3 0.6-0.3 0.9-0.6 1.9-1 2.9C43.9 26.7 43.6 26.1 43.3 25.5zM19 9.5c0.4-0.2 0.9-0.4 1.5-0.4 2.2 0 5.3 1.7 8.7 4.8-1.5 1.7-3 3.5-4.5 5.5-2.4 0.3-4.8 0.6-7 1.1C16.5 14.8 17 10.7 19 9.5zM6 32c0-2.3 3.4-4.8 8.9-6.6 0.7 2.2 1.5 4.4 2.5 6.6-1 2.2-1.8 4.4-2.5 6.6C9.4 36.8 6 34.3 6 32zM19 54.5c-2-1.2-2.5-5.3-1.3-11 2.2 0.5 4.6 0.9 7 1.1 1.4 2 2.9 3.8 4.5 5.5C24.9 54 21 55.7 19 54.5zM45 54.5c-2 1.2-5.9-0.5-10.2-4.4 1.5-1.7 3-3.5 4.5-5.5 2.4-0.3 4.8-0.6 7-1.1C47.5 49.2 47 53.3 45 54.5zM49.1 38.6c-0.7-2.2-1.5-4.4-2.5-6.6 1-2.2 1.8-4.4 2.5-6.6 5.5 1.8 8.9 4.3 8.9 6.6S54.6 36.8 49.1 38.6z" fill="#8789fe" data-fill-palette-color="accent"></path><circle cx="32" cy="32" r="6.0" fill="#8789fe" data-fill-palette-color="accent"></circle></g></svg></g></svg></g></svg></g></svg></g></svg></g><defs></defs></svg><rect width="395.52" height="247.2" fill="none" stroke="none" visibility="hidden"></rect></g></svg></g></svg>